# xmcd
# Copyright (C) 1995-1998 Ti Kan
#
# Track frame offsets:
#       150
#       17077
#       34162
#       35692
#       39052
#       48592
#       80415
#       98640
#       107137
#       120377
#       140312
#       150590
#       162512
#
# Disc length: 2379 seconds
#
# Revision: 0
# Processed by: cddbd v1.4PL0 Copyright (c) Steve Scherf et al.
# Submitted via: CD-Transfer v1.0
#
DISCID=9a09490d
DTITLE=Adriano Celentano - Yuppi Du
DYEAR=75
DGENRE=
TTITLE0=L'Affondamento
TTITLE1=La Messa
TTITLE2=A Chi Stai Pensando?
TTITLE3=Va Chi C'è
TTITLE4=La Ballata
TTITLE5=La Passarella
TTITLE6=Such A Cold Night To-Night
TTITLE7=La Violenza
TTITLE8=Do Dap
TTITLE9=Yuppi Du
TTITLE10=Il Castagnaro
TTITLE11=Il Finale
TTITLE12=Yuppi Du
EXTD=
EXTT0=
EXTT1=
EXTT2=
EXTT3=
EXTT4=
EXTT5=
EXTT6=
EXTT7=
EXTT8=
EXTT9=
EXTT10=
EXTT11=
EXTT12=
PLAYORDER=
